<svg xmlns="http://www.w3.org/2000/svg" viewBox="0 0 260 190" role="img" aria-label="LED current-limiting resistor: series R from V+ sets LED current, R = (V+ − V_LED)/I"><rect x="0" y="0" width="260" height="190" fill="white"/><text x="40" y="50" text-anchor="end" font-family="Helvetica, Arial, sans-serif" font-size="13" font-weight="normal" fill="#1a1a1a">V+</text><line x1="50" y1="50" x2="90" y2="50" stroke="#1a1a1a" stroke-width="2.2" stroke-linecap="round"/><line x1="98.0" y1="50" x2="107.0" y2="50" stroke="#1a1a1a" stroke-width="2.2" stroke-linecap="round"/><line x1="133.0" y1="50" x2="142.0" y2="50" stroke="#1a1a1a" stroke-width="2.2" stroke-linecap="round"/><polyline points="107.0,50 111.33333333333333,42 115.66666666666667,58 120.0,42 124.33333333333333,58 128.66666666666666,42 133.0,50" stroke="#1a1a1a" stroke-width="2.2" fill="none" stroke-linejoin="round" stroke-linecap="round"/><text x="120" y="30" text-anchor="middle" font-family="Helvetica, Arial, sans-serif" font-size="12" font-weight="normal" fill="#1a1a1a">R</text><line x1="150" y1="50" x2="190" y2="50" stroke="#1a1a1a" stroke-width="2.2" stroke-linecap="round"/><circle cx="190" cy="50" r="3.2" fill="#1a1a1a"/><line x1="190" y1="50" x2="190" y2="90" stroke="#1a1a1a" stroke-width="2.2" stroke-linecap="round"/><line x1="190" y1="90.0" x2="190" y2="103.0" stroke="#1a1a1a" stroke-width="2.2" stroke-linecap="round"/><polygon points="181,103.0 199,103.0 190,117.0" stroke="#1a1a1a" stroke-width="2.2" fill="#1a1a1a" stroke-linejoin="round" stroke-linecap="round"/><line x1="181" y1="117.0" x2="199" y2="117.0" stroke="#1a1a1a" stroke-width="2.2" stroke-linecap="round"/><line x1="190" y1="117.0" x2="190" y2="130.0" stroke="#1a1a1a" stroke-width="2.2" stroke-linecap="round"/><line x1="190" y1="130" x2="190" y2="150" stroke="#1a1a1a" stroke-width="2.2" stroke-linecap="round"/><line x1="190" y1="150" x2="190" y2="158" stroke="#1a1a1a" stroke-width="2.2" stroke-linecap="round"/><line x1="183.0" y1="158" x2="197.0" y2="158" stroke="#1a1a1a" stroke-width="2.2" stroke-linecap="round"/><line x1="185.5" y1="163" x2="194.5" y2="163" stroke="#1a1a1a" stroke-width="2.2" stroke-linecap="round"/><line x1="188.0" y1="168" x2="192.0" y2="168" stroke="#1a1a1a" stroke-width="2.2" stroke-linecap="round"/><text x="215" y="110" text-anchor="start" font-family="Helvetica, Arial, sans-serif" font-size="12" font-weight="normal" fill="#1a1a1a">LED</text></svg>