<svg xmlns="http://www.w3.org/2000/svg" viewBox="0 0 280 250" role="img" aria-label="RC lowpass filter (also an RC integrator): R in series, C from the output node to ground"><rect x="0" y="0" width="280" height="250" fill="white"/><text x="40" y="100" text-anchor="end" font-family="Helvetica, Arial, sans-serif" font-size="13" font-weight="normal" fill="#1a1a1a">Vin</text><line x1="50" y1="100" x2="75" y2="100" stroke="#1a1a1a" stroke-width="2.2" stroke-linecap="round"/><line x1="83.0" y1="100" x2="92.0" y2="100" stroke="#1a1a1a" stroke-width="2.2" stroke-linecap="round"/><line x1="118.0" y1="100" x2="127.0" y2="100" stroke="#1a1a1a" stroke-width="2.2" stroke-linecap="round"/><polyline points="92.0,100 96.33333333333333,92 100.66666666666667,108 105.0,92 109.33333333333333,108 113.66666666666666,92 118.0,100" stroke="#1a1a1a" stroke-width="2.2" fill="none" stroke-linejoin="round" stroke-linecap="round"/><line x1="135" y1="100" x2="170" y2="100" stroke="#1a1a1a" stroke-width="2.2" stroke-linecap="round"/><circle cx="170" cy="100" r="3.2" fill="#1a1a1a"/><line x1="170" y1="100" x2="210" y2="100" stroke="#1a1a1a" stroke-width="2.2" stroke-linecap="round"/><text x="220" y="104" text-anchor="start" font-family="Helvetica, Arial, sans-serif" font-size="13" font-weight="normal" fill="#1a1a1a">Vout</text><line x1="170" y1="100" x2="170" y2="130" stroke="#1a1a1a" stroke-width="2.2" stroke-linecap="round"/><line x1="170" y1="143.0" x2="170" y2="161.0" stroke="#1a1a1a" stroke-width="2.2" stroke-linecap="round"/><line x1="170" y1="169.0" x2="170" y2="187.0" stroke="#1a1a1a" stroke-width="2.2" stroke-linecap="round"/><line x1="160.0" y1="161.0" x2="180.0" y2="161.0" stroke="#1a1a1a" stroke-width="2.2" stroke-linecap="round"/><line x1="160.0" y1="169.0" x2="180.0" y2="169.0" stroke="#1a1a1a" stroke-width="2.2" stroke-linecap="round"/><line x1="170" y1="187" x2="170" y2="210" stroke="#1a1a1a" stroke-width="2.2" stroke-linecap="round"/><line x1="170" y1="210" x2="170" y2="218" stroke="#1a1a1a" stroke-width="2.2" stroke-linecap="round"/><line x1="163.0" y1="218" x2="177.0" y2="218" stroke="#1a1a1a" stroke-width="2.2" stroke-linecap="round"/><line x1="165.5" y1="223" x2="174.5" y2="223" stroke="#1a1a1a" stroke-width="2.2" stroke-linecap="round"/><line x1="168.0" y1="228" x2="172.0" y2="228" stroke="#1a1a1a" stroke-width="2.2" stroke-linecap="round"/></svg>