<svg xmlns="http://www.w3.org/2000/svg" viewBox="0 0 320 250" role="img" aria-label="Push-pull output stage: complementary npn (sources current on the positive swing) and pnp (sinks current on the negative swing) share the output node"><rect x="0" y="0" width="320" height="250" fill="white"/><line x1="80" y1="20" x2="260" y2="20" stroke="#1a1a1a" stroke-width="2.2" stroke-linecap="round"/><text x="170.0" y="10" text-anchor="middle" font-family="Helvetica, Arial, sans-serif" font-size="12" font-weight="normal" fill="#1a1a1a">+V</text><line x1="80" y1="220" x2="260" y2="220" stroke="#1a1a1a" stroke-width="2.2" stroke-linecap="round"/><text x="170.0" y="210" text-anchor="middle" font-family="Helvetica, Arial, sans-serif" font-size="12" font-weight="normal" fill="#1a1a1a">−V</text><line x1="170" y1="20" x2="178" y2="58" stroke="#1a1a1a" stroke-width="2.2" stroke-linecap="round"/><circle cx="170" cy="90" r="20" stroke="#1a1a1a" stroke-width="2.2" fill="white"/><line x1="148" y1="90" x2="164" y2="90" stroke="#1a1a1a" stroke-width="2.2" stroke-linecap="round"/><line x1="164" y1="77" x2="164" y2="103" stroke="#1a1a1a" stroke-width="2.2" stroke-linecap="round"/><line x1="164" y1="83" x2="178" y2="77" stroke="#1a1a1a" stroke-width="2.2" stroke-linecap="round"/><line x1="178" y1="77" x2="178" y2="58" stroke="#1a1a1a" stroke-width="2.2" stroke-linecap="round"/><line x1="164" y1="97" x2="178" y2="103" stroke="#1a1a1a" stroke-width="2.2" stroke-linecap="round"/><line x1="178" y1="103" x2="178" y2="122" stroke="#1a1a1a" stroke-width="2.2" stroke-linecap="round"/><polygon points="178,103 172.07035975978698,99.27987008000441 177.9265830926364,96.00038501360874" stroke="#1a1a1a" stroke-width="2.2" fill="#1a1a1a" stroke-linejoin="round" stroke-linecap="round"/><circle cx="170" cy="170" r="20" stroke="#1a1a1a" stroke-width="2.2" fill="white"/><line x1="148" y1="170" x2="164" y2="170" stroke="#1a1a1a" stroke-width="2.2" stroke-linecap="round"/><line x1="164" y1="157" x2="164" y2="183" stroke="#1a1a1a" stroke-width="2.2" stroke-linecap="round"/><line x1="164" y1="163" x2="178" y2="157" stroke="#1a1a1a" stroke-width="2.2" stroke-linecap="round"/><line x1="178" y1="157" x2="178" y2="138" stroke="#1a1a1a" stroke-width="2.2" stroke-linecap="round"/><line x1="164" y1="177" x2="178" y2="183" stroke="#1a1a1a" stroke-width="2.2" stroke-linecap="round"/><line x1="178" y1="183" x2="178" y2="202" stroke="#1a1a1a" stroke-width="2.2" stroke-linecap="round"/><polygon points="178,183 183.92964024021302,186.72012991999557 178.0734169073636,189.99961498639126" stroke="#1a1a1a" stroke-width="2.2" fill="#1a1a1a" stroke-linejoin="round" stroke-linecap="round"/><line x1="170" y1="220" x2="178" y2="202" stroke="#1a1a1a" stroke-width="2.2" stroke-linecap="round"/><line x1="178" y1="122" x2="178" y2="138" stroke="#1a1a1a" stroke-width="2.2" stroke-linecap="round"/><circle cx="178" cy="122" r="3.2" fill="#1a1a1a"/><line x1="178" y1="122" x2="230" y2="122" stroke="#1a1a1a" stroke-width="2.2" stroke-linecap="round"/><text x="240" y="126" text-anchor="start" font-family="Helvetica, Arial, sans-serif" font-size="13" font-weight="normal" fill="#1a1a1a">Vout</text><text x="60" y="130" text-anchor="end" font-family="Helvetica, Arial, sans-serif" font-size="13" font-weight="normal" fill="#1a1a1a">Vin</text><line x1="60" y1="130" x2="90" y2="130" stroke="#1a1a1a" stroke-width="2.2" stroke-linecap="round"/><line x1="90" y1="130" x2="90" y2="90" stroke="#1a1a1a" stroke-width="2.2" stroke-linecap="round"/><line x1="90" y1="90" x2="148" y2="90" stroke="#1a1a1a" stroke-width="2.2" stroke-linecap="round"/><line x1="90" y1="130" x2="90" y2="170" stroke="#1a1a1a" stroke-width="2.2" stroke-linecap="round"/><line x1="90" y1="170" x2="148" y2="170" stroke="#1a1a1a" stroke-width="2.2" stroke-linecap="round"/></svg>