<svg xmlns="http://www.w3.org/2000/svg" viewBox="0 0 300 250" role="img" aria-label="Emitter follower: base driven by a voltage divider, collector tied to +Vcc, output taken from the emitter"><rect x="0" y="0" width="300" height="250" fill="white"/><line x1="60" y1="30" x2="260" y2="30" stroke="#1a1a1a" stroke-width="2.2" stroke-linecap="round"/><text x="160.0" y="20" text-anchor="middle" font-family="Helvetica, Arial, sans-serif" font-size="12" font-weight="normal" fill="#1a1a1a">+Vcc</text><line x1="170" y1="30" x2="170" y2="68" stroke="#1a1a1a" stroke-width="2.2" stroke-linecap="round"/><circle cx="170" cy="100" r="20" stroke="#1a1a1a" stroke-width="2.2" fill="white"/><line x1="148" y1="100" x2="164" y2="100" stroke="#1a1a1a" stroke-width="2.2" stroke-linecap="round"/><line x1="164" y1="87" x2="164" y2="113" stroke="#1a1a1a" stroke-width="2.2" stroke-linecap="round"/><line x1="164" y1="93" x2="178" y2="87" stroke="#1a1a1a" stroke-width="2.2" stroke-linecap="round"/><line x1="178" y1="87" x2="178" y2="68" stroke="#1a1a1a" stroke-width="2.2" stroke-linecap="round"/><line x1="164" y1="107" x2="178" y2="113" stroke="#1a1a1a" stroke-width="2.2" stroke-linecap="round"/><line x1="178" y1="113" x2="178" y2="132" stroke="#1a1a1a" stroke-width="2.2" stroke-linecap="round"/><polygon points="178,113 172.07035975978698,109.27987008000441 177.9265830926364,106.00038501360874" stroke="#1a1a1a" stroke-width="2.2" fill="#1a1a1a" stroke-linejoin="round" stroke-linecap="round"/><line x1="90" y1="30" x2="90" y2="50.0" stroke="#1a1a1a" stroke-width="2.2" stroke-linecap="round"/><line x1="90" y1="50.0" x2="90" y2="57.0" stroke="#1a1a1a" stroke-width="2.2" stroke-linecap="round"/><line x1="90" y1="83.0" x2="90" y2="90.0" stroke="#1a1a1a" stroke-width="2.2" stroke-linecap="round"/><polyline points="90,57.0 82,61.333333333333336 98,65.66666666666667 82,70.0 98,74.33333333333333 82,78.66666666666666 90,83.0" stroke="#1a1a1a" stroke-width="2.2" fill="none" stroke-linejoin="round" stroke-linecap="round"/><line x1="90" y1="90.0" x2="90" y2="100" stroke="#1a1a1a" stroke-width="2.2" stroke-linecap="round"/><line x1="90" y1="100" x2="148" y2="100" stroke="#1a1a1a" stroke-width="2.2" stroke-linecap="round"/><line x1="90" y1="100" x2="90" y2="130.0" stroke="#1a1a1a" stroke-width="2.2" stroke-linecap="round"/><line x1="90" y1="130.0" x2="90" y2="137.0" stroke="#1a1a1a" stroke-width="2.2" stroke-linecap="round"/><line x1="90" y1="163.0" x2="90" y2="170.0" stroke="#1a1a1a" stroke-width="2.2" stroke-linecap="round"/><polyline points="90,137.0 82,141.33333333333334 98,145.66666666666666 82,150.0 98,154.33333333333334 82,158.66666666666666 90,163.0" stroke="#1a1a1a" stroke-width="2.2" fill="none" stroke-linejoin="round" stroke-linecap="round"/><line x1="90" y1="170.0" x2="90" y2="190" stroke="#1a1a1a" stroke-width="2.2" stroke-linecap="round"/><line x1="90" y1="190" x2="90" y2="198" stroke="#1a1a1a" stroke-width="2.2" stroke-linecap="round"/><line x1="83.0" y1="198" x2="97.0" y2="198" stroke="#1a1a1a" stroke-width="2.2" stroke-linecap="round"/><line x1="85.5" y1="203" x2="94.5" y2="203" stroke="#1a1a1a" stroke-width="2.2" stroke-linecap="round"/><line x1="88.0" y1="208" x2="92.0" y2="208" stroke="#1a1a1a" stroke-width="2.2" stroke-linecap="round"/><circle cx="90" cy="100" r="3.2" fill="#1a1a1a"/><text x="20" y="104" text-anchor="end" font-family="Helvetica, Arial, sans-serif" font-size="13" font-weight="normal" fill="#1a1a1a">Vin</text><line x1="30" y1="100" x2="40.0" y2="100" stroke="#1a1a1a" stroke-width="2.2" stroke-linecap="round"/><line x1="40.0" y1="100" x2="51.0" y2="100" stroke="#1a1a1a" stroke-width="2.2" stroke-linecap="round"/><line x1="59.0" y1="100" x2="70.0" y2="100" stroke="#1a1a1a" stroke-width="2.2" stroke-linecap="round"/><line x1="51.0" y1="90.0" x2="51.0" y2="110.0" stroke="#1a1a1a" stroke-width="2.2" stroke-linecap="round"/><line x1="59.0" y1="90.0" x2="59.0" y2="110.0" stroke="#1a1a1a" stroke-width="2.2" stroke-linecap="round"/><line x1="70.0" y1="100" x2="90" y2="100" stroke="#1a1a1a" stroke-width="2.2" stroke-linecap="round"/><line x1="178" y1="132" x2="170" y2="170.0" stroke="#1a1a1a" stroke-width="2.2" stroke-linecap="round"/><line x1="170" y1="170.0" x2="170" y2="177.0" stroke="#1a1a1a" stroke-width="2.2" stroke-linecap="round"/><line x1="170" y1="203.0" x2="170" y2="210.0" stroke="#1a1a1a" stroke-width="2.2" stroke-linecap="round"/><polyline points="170,177.0 162,181.33333333333334 178,185.66666666666666 162,190.0 178,194.33333333333334 162,198.66666666666666 170,203.0" stroke="#1a1a1a" stroke-width="2.2" fill="none" stroke-linejoin="round" stroke-linecap="round"/><line x1="170" y1="210.0" x2="170" y2="225" stroke="#1a1a1a" stroke-width="2.2" stroke-linecap="round"/><line x1="170" y1="225" x2="170" y2="233" stroke="#1a1a1a" stroke-width="2.2" stroke-linecap="round"/><line x1="163.0" y1="233" x2="177.0" y2="233" stroke="#1a1a1a" stroke-width="2.2" stroke-linecap="round"/><line x1="165.5" y1="238" x2="174.5" y2="238" stroke="#1a1a1a" stroke-width="2.2" stroke-linecap="round"/><line x1="168.0" y1="243" x2="172.0" y2="243" stroke="#1a1a1a" stroke-width="2.2" stroke-linecap="round"/><line x1="178" y1="132" x2="220" y2="132" stroke="#1a1a1a" stroke-width="2.2" stroke-linecap="round"/><text x="230" y="136" text-anchor="start" font-family="Helvetica, Arial, sans-serif" font-size="13" font-weight="normal" fill="#1a1a1a">Vout</text></svg>