<svg xmlns="http://www.w3.org/2000/svg" viewBox="0 0 420 340" role="img" aria-label="CMOS NAND: two nFETs in series pull Y low only if A AND B are both high; two pFETs in parallel pull Y high if either is low"><rect x="0" y="0" width="420" height="340" fill="white"/><line x1="60" y1="25" x2="300" y2="25" stroke="#1a1a1a" stroke-width="2.2" stroke-linecap="round"/><text x="180.0" y="15" text-anchor="middle" font-family="Helvetica, Arial, sans-serif" font-size="12" font-weight="normal" fill="#1a1a1a">+VDD</text><line x1="150" y1="25" x2="160" y2="43" stroke="#1a1a1a" stroke-width="2.2" stroke-linecap="round"/><line x1="250" y1="25" x2="260" y2="43" stroke="#1a1a1a" stroke-width="2.2" stroke-linecap="round"/><circle cx="150" cy="75" r="20" stroke="#1a1a1a" stroke-width="2.2" fill="white"/><line x1="128" y1="75" x2="138" y2="75" stroke="#1a1a1a" stroke-width="2.2" stroke-linecap="round"/><line x1="146" y1="62" x2="146" y2="88" stroke="#1a1a1a" stroke-width="2.2" stroke-linecap="round"/><line x1="146" y1="67" x2="160" y2="67" stroke="#1a1a1a" stroke-width="2.2" stroke-linecap="round"/><line x1="160" y1="67" x2="160" y2="43" stroke="#1a1a1a" stroke-width="2.2" stroke-linecap="round"/><line x1="146" y1="83" x2="160" y2="83" stroke="#1a1a1a" stroke-width="2.2" stroke-linecap="round"/><line x1="160" y1="83" x2="160" y2="107" stroke="#1a1a1a" stroke-width="2.2" stroke-linecap="round"/><polygon points="136,75 142.1430779332326,71.64402122977057 142.1430779332326,78.35597877022943" stroke="#1a1a1a" stroke-width="2.2" fill="#1a1a1a" stroke-linejoin="round" stroke-linecap="round"/><circle cx="250" cy="75" r="20" stroke="#1a1a1a" stroke-width="2.2" fill="white"/><line x1="228" y1="75" x2="238" y2="75" stroke="#1a1a1a" stroke-width="2.2" stroke-linecap="round"/><line x1="246" y1="62" x2="246" y2="88" stroke="#1a1a1a" stroke-width="2.2" stroke-linecap="round"/><line x1="246" y1="67" x2="260" y2="67" stroke="#1a1a1a" stroke-width="2.2" stroke-linecap="round"/><line x1="260" y1="67" x2="260" y2="43" stroke="#1a1a1a" stroke-width="2.2" stroke-linecap="round"/><line x1="246" y1="83" x2="260" y2="83" stroke="#1a1a1a" stroke-width="2.2" stroke-linecap="round"/><line x1="260" y1="83" x2="260" y2="107" stroke="#1a1a1a" stroke-width="2.2" stroke-linecap="round"/><polygon points="236,75 242.1430779332326,71.64402122977057 242.1430779332326,78.35597877022943" stroke="#1a1a1a" stroke-width="2.2" fill="#1a1a1a" stroke-linejoin="round" stroke-linecap="round"/><line x1="160" y1="107" x2="160" y2="130" stroke="#1a1a1a" stroke-width="2.2" stroke-linecap="round"/><line x1="260" y1="107" x2="260" y2="130" stroke="#1a1a1a" stroke-width="2.2" stroke-linecap="round"/><line x1="160" y1="130" x2="260" y2="130" stroke="#1a1a1a" stroke-width="2.2" stroke-linecap="round"/><circle cx="160" cy="130" r="3.2" fill="#1a1a1a"/><line x1="150" y1="130" x2="160" y2="158" stroke="#1a1a1a" stroke-width="2.2" stroke-linecap="round"/><circle cx="150" cy="190" r="20" stroke="#1a1a1a" stroke-width="2.2" fill="white"/><line x1="128" y1="190" x2="138" y2="190" stroke="#1a1a1a" stroke-width="2.2" stroke-linecap="round"/><line x1="146" y1="177" x2="146" y2="203" stroke="#1a1a1a" stroke-width="2.2" stroke-linecap="round"/><line x1="146" y1="182" x2="160" y2="182" stroke="#1a1a1a" stroke-width="2.2" stroke-linecap="round"/><line x1="160" y1="182" x2="160" y2="158" stroke="#1a1a1a" stroke-width="2.2" stroke-linecap="round"/><line x1="146" y1="198" x2="160" y2="198" stroke="#1a1a1a" stroke-width="2.2" stroke-linecap="round"/><line x1="160" y1="198" x2="160" y2="222" stroke="#1a1a1a" stroke-width="2.2" stroke-linecap="round"/><polygon points="138,190 131.8569220667674,193.35597877022943 131.8569220667674,186.64402122977057" stroke="#1a1a1a" stroke-width="2.2" fill="#1a1a1a" stroke-linejoin="round" stroke-linecap="round"/><line x1="160" y1="222" x2="160" y2="228" stroke="#1a1a1a" stroke-width="2.2" stroke-linecap="round"/><circle cx="150" cy="260" r="20" stroke="#1a1a1a" stroke-width="2.2" fill="white"/><line x1="128" y1="260" x2="138" y2="260" stroke="#1a1a1a" stroke-width="2.2" stroke-linecap="round"/><line x1="146" y1="247" x2="146" y2="273" stroke="#1a1a1a" stroke-width="2.2" stroke-linecap="round"/><line x1="146" y1="252" x2="160" y2="252" stroke="#1a1a1a" stroke-width="2.2" stroke-linecap="round"/><line x1="160" y1="252" x2="160" y2="228" stroke="#1a1a1a" stroke-width="2.2" stroke-linecap="round"/><line x1="146" y1="268" x2="160" y2="268" stroke="#1a1a1a" stroke-width="2.2" stroke-linecap="round"/><line x1="160" y1="268" x2="160" y2="292" stroke="#1a1a1a" stroke-width="2.2" stroke-linecap="round"/><polygon points="138,260 131.8569220667674,263.3559787702294 131.8569220667674,256.6440212297706" stroke="#1a1a1a" stroke-width="2.2" fill="#1a1a1a" stroke-linejoin="round" stroke-linecap="round"/><line x1="160" y1="292" x2="150" y2="310" stroke="#1a1a1a" stroke-width="2.2" stroke-linecap="round"/><line x1="150" y1="310" x2="150" y2="318" stroke="#1a1a1a" stroke-width="2.2" stroke-linecap="round"/><line x1="143.0" y1="318" x2="157.0" y2="318" stroke="#1a1a1a" stroke-width="2.2" stroke-linecap="round"/><line x1="145.5" y1="323" x2="154.5" y2="323" stroke="#1a1a1a" stroke-width="2.2" stroke-linecap="round"/><line x1="148.0" y1="328" x2="152.0" y2="328" stroke="#1a1a1a" stroke-width="2.2" stroke-linecap="round"/><line x1="160" y1="130" x2="280" y2="130" stroke="#1a1a1a" stroke-width="2.2" stroke-linecap="round"/><text x="290" y="134" text-anchor="start" font-family="Helvetica, Arial, sans-serif" font-size="12" font-weight="normal" fill="#1a1a1a">Y = A·B</text><text x="60" y="194" text-anchor="end" font-family="Helvetica, Arial, sans-serif" font-size="13" font-weight="normal" fill="#1a1a1a">A</text><line x1="60" y1="190" x2="60" y2="75" stroke="#1a1a1a" stroke-width="2.2" stroke-linecap="round"/><line x1="60" y1="75" x2="128" y2="75" stroke="#1a1a1a" stroke-width="2.2" stroke-linecap="round"/><line x1="60" y1="190" x2="128" y2="190" stroke="#1a1a1a" stroke-width="2.2" stroke-linecap="round"/><line x1="360" y1="75" x2="360" y2="110" stroke="#1a1a1a" stroke-width="2.2" stroke-linecap="round"/><line x1="360" y1="110" x2="228" y2="110" stroke="#1a1a1a" stroke-width="2.2" stroke-linecap="round"/><line x1="228" y1="110" x2="228" y2="75" stroke="#1a1a1a" stroke-width="2.2" stroke-linecap="round"/><line x1="360" y1="75" x2="360" y2="260" stroke="#1a1a1a" stroke-width="2.2" stroke-linecap="round"/><line x1="360" y1="260" x2="128" y2="260" stroke="#1a1a1a" stroke-width="2.2" stroke-linecap="round"/><text x="370" y="264" text-anchor="start" font-family="Helvetica, Arial, sans-serif" font-size="13" font-weight="normal" fill="#1a1a1a">B</text></svg>