<svg xmlns="http://www.w3.org/2000/svg" viewBox="0 0 300 260" role="img" aria-label="CMOS inverter: complementary pFET (to +VDD) and nFET (to ground) gated together — exactly one conducts in either static state, so quiescent current is ≈ 0"><rect x="0" y="0" width="300" height="260" fill="white"/><line x1="70" y1="25" x2="230" y2="25" stroke="#1a1a1a" stroke-width="2.2" stroke-linecap="round"/><text x="150.0" y="15" text-anchor="middle" font-family="Helvetica, Arial, sans-serif" font-size="12" font-weight="normal" fill="#1a1a1a">+VDD</text><line x1="150" y1="25" x2="160" y2="48" stroke="#1a1a1a" stroke-width="2.2" stroke-linecap="round"/><circle cx="150" cy="80" r="20" stroke="#1a1a1a" stroke-width="2.2" fill="white"/><line x1="128" y1="80" x2="138" y2="80" stroke="#1a1a1a" stroke-width="2.2" stroke-linecap="round"/><line x1="146" y1="67" x2="146" y2="93" stroke="#1a1a1a" stroke-width="2.2" stroke-linecap="round"/><line x1="146" y1="72" x2="160" y2="72" stroke="#1a1a1a" stroke-width="2.2" stroke-linecap="round"/><line x1="160" y1="72" x2="160" y2="48" stroke="#1a1a1a" stroke-width="2.2" stroke-linecap="round"/><line x1="146" y1="88" x2="160" y2="88" stroke="#1a1a1a" stroke-width="2.2" stroke-linecap="round"/><line x1="160" y1="88" x2="160" y2="112" stroke="#1a1a1a" stroke-width="2.2" stroke-linecap="round"/><polygon points="136,80 142.1430779332326,76.64402122977057 142.1430779332326,83.35597877022943" stroke="#1a1a1a" stroke-width="2.2" fill="#1a1a1a" stroke-linejoin="round" stroke-linecap="round"/><line x1="160" y1="112" x2="160" y2="148" stroke="#1a1a1a" stroke-width="2.2" stroke-linecap="round"/><circle cx="150" cy="180" r="20" stroke="#1a1a1a" stroke-width="2.2" fill="white"/><line x1="128" y1="180" x2="138" y2="180" stroke="#1a1a1a" stroke-width="2.2" stroke-linecap="round"/><line x1="146" y1="167" x2="146" y2="193" stroke="#1a1a1a" stroke-width="2.2" stroke-linecap="round"/><line x1="146" y1="172" x2="160" y2="172" stroke="#1a1a1a" stroke-width="2.2" stroke-linecap="round"/><line x1="160" y1="172" x2="160" y2="148" stroke="#1a1a1a" stroke-width="2.2" stroke-linecap="round"/><line x1="146" y1="188" x2="160" y2="188" stroke="#1a1a1a" stroke-width="2.2" stroke-linecap="round"/><line x1="160" y1="188" x2="160" y2="212" stroke="#1a1a1a" stroke-width="2.2" stroke-linecap="round"/><polygon points="138,180 131.8569220667674,183.35597877022943 131.8569220667674,176.64402122977057" stroke="#1a1a1a" stroke-width="2.2" fill="#1a1a1a" stroke-linejoin="round" stroke-linecap="round"/><circle cx="160" cy="112" r="3.2" fill="#1a1a1a"/><line x1="160" y1="112" x2="210" y2="112" stroke="#1a1a1a" stroke-width="2.2" stroke-linecap="round"/><text x="220" y="116" text-anchor="start" font-family="Helvetica, Arial, sans-serif" font-size="13" font-weight="normal" fill="#1a1a1a">Vout</text><line x1="160" y1="212" x2="150" y2="230" stroke="#1a1a1a" stroke-width="2.2" stroke-linecap="round"/><line x1="150" y1="230" x2="150" y2="238" stroke="#1a1a1a" stroke-width="2.2" stroke-linecap="round"/><line x1="143.0" y1="238" x2="157.0" y2="238" stroke="#1a1a1a" stroke-width="2.2" stroke-linecap="round"/><line x1="145.5" y1="243" x2="154.5" y2="243" stroke="#1a1a1a" stroke-width="2.2" stroke-linecap="round"/><line x1="148.0" y1="248" x2="152.0" y2="248" stroke="#1a1a1a" stroke-width="2.2" stroke-linecap="round"/><line x1="50" y1="180" x2="128" y2="180" stroke="#1a1a1a" stroke-width="2.2" stroke-linecap="round"/><line x1="50" y1="80" x2="128" y2="80" stroke="#1a1a1a" stroke-width="2.2" stroke-linecap="round"/><line x1="50" y1="80" x2="50" y2="180" stroke="#1a1a1a" stroke-width="2.2" stroke-linecap="round"/><text x="40" y="130.0" text-anchor="end" font-family="Helvetica, Arial, sans-serif" font-size="13" font-weight="normal" fill="#1a1a1a">Vin</text></svg>