<svg xmlns="http://www.w3.org/2000/svg" viewBox="0 0 300 280" role="img" aria-label="Source follower with an active-load current sink (Q2): holds the follower's operating current constant, improving linearity over a plain resistor"><rect x="0" y="0" width="300" height="280" fill="white"/><line x1="60" y1="25" x2="260" y2="25" stroke="#1a1a1a" stroke-width="2.2" stroke-linecap="round"/><text x="160.0" y="15" text-anchor="middle" font-family="Helvetica, Arial, sans-serif" font-size="12" font-weight="normal" fill="#1a1a1a">+VDD</text><line x1="150" y1="25" x2="160" y2="53" stroke="#1a1a1a" stroke-width="2.2" stroke-linecap="round"/><circle cx="150" cy="85" r="20" stroke="#1a1a1a" stroke-width="2.2" fill="white"/><line x1="128" y1="85" x2="138" y2="85" stroke="#1a1a1a" stroke-width="2.2" stroke-linecap="round"/><line x1="146" y1="72" x2="146" y2="98" stroke="#1a1a1a" stroke-width="2.2" stroke-linecap="round"/><line x1="146" y1="77" x2="160" y2="77" stroke="#1a1a1a" stroke-width="2.2" stroke-linecap="round"/><line x1="160" y1="77" x2="160" y2="53" stroke="#1a1a1a" stroke-width="2.2" stroke-linecap="round"/><line x1="146" y1="93" x2="160" y2="93" stroke="#1a1a1a" stroke-width="2.2" stroke-linecap="round"/><line x1="160" y1="93" x2="160" y2="117" stroke="#1a1a1a" stroke-width="2.2" stroke-linecap="round"/><polygon points="138,85 131.8569220667674,88.35597877022943 131.8569220667674,81.64402122977057" stroke="#1a1a1a" stroke-width="2.2" fill="#1a1a1a" stroke-linejoin="round" stroke-linecap="round"/><text x="60" y="89" text-anchor="end" font-family="Helvetica, Arial, sans-serif" font-size="13" font-weight="normal" fill="#1a1a1a">Vin</text><line x1="60" y1="85" x2="128" y2="85" stroke="#1a1a1a" stroke-width="2.2" stroke-linecap="round"/><line x1="160" y1="117" x2="200" y2="117" stroke="#1a1a1a" stroke-width="2.2" stroke-linecap="round"/><text x="210" y="121" text-anchor="start" font-family="Helvetica, Arial, sans-serif" font-size="13" font-weight="normal" fill="#1a1a1a">Vout</text><line x1="160" y1="117" x2="160" y2="158" stroke="#1a1a1a" stroke-width="2.2" stroke-linecap="round"/><circle cx="150" cy="190" r="20" stroke="#1a1a1a" stroke-width="2.2" fill="white"/><line x1="128" y1="190" x2="138" y2="190" stroke="#1a1a1a" stroke-width="2.2" stroke-linecap="round"/><line x1="146" y1="177" x2="146" y2="203" stroke="#1a1a1a" stroke-width="2.2" stroke-linecap="round"/><line x1="146" y1="182" x2="160" y2="182" stroke="#1a1a1a" stroke-width="2.2" stroke-linecap="round"/><line x1="160" y1="182" x2="160" y2="158" stroke="#1a1a1a" stroke-width="2.2" stroke-linecap="round"/><line x1="146" y1="198" x2="160" y2="198" stroke="#1a1a1a" stroke-width="2.2" stroke-linecap="round"/><line x1="160" y1="198" x2="160" y2="222" stroke="#1a1a1a" stroke-width="2.2" stroke-linecap="round"/><polygon points="138,190 131.8569220667674,193.35597877022943 131.8569220667674,186.64402122977057" stroke="#1a1a1a" stroke-width="2.2" fill="#1a1a1a" stroke-linejoin="round" stroke-linecap="round"/><circle cx="160" cy="158" r="3.2" fill="#1a1a1a"/><line x1="160" y1="222" x2="150" y2="250" stroke="#1a1a1a" stroke-width="2.2" stroke-linecap="round"/><line x1="150" y1="250" x2="150" y2="258" stroke="#1a1a1a" stroke-width="2.2" stroke-linecap="round"/><line x1="143.0" y1="258" x2="157.0" y2="258" stroke="#1a1a1a" stroke-width="2.2" stroke-linecap="round"/><line x1="145.5" y1="263" x2="154.5" y2="263" stroke="#1a1a1a" stroke-width="2.2" stroke-linecap="round"/><line x1="148.0" y1="268" x2="152.0" y2="268" stroke="#1a1a1a" stroke-width="2.2" stroke-linecap="round"/><line x1="128" y1="190" x2="98" y2="190" stroke="#1a1a1a" stroke-width="2.2" stroke-linecap="round"/><line x1="98" y1="190" x2="98" y2="222" stroke="#1a1a1a" stroke-width="2.2" stroke-linecap="round"/><line x1="98" y1="222" x2="160" y2="222" stroke="#1a1a1a" stroke-width="2.2" stroke-linecap="round"/><text x="88" y="206.0" text-anchor="end" font-family="Helvetica, Arial, sans-serif" font-size="10" font-weight="normal" fill="#1a1a1a">active load</text></svg>