<svg xmlns="http://www.w3.org/2000/svg" viewBox="0 0 300 260" role="img" aria-label="Power MOSFET switching an inductive load: flyback diode D1 clamps the turn-off voltage spike, same protection role as in a BJT switch"><rect x="0" y="0" width="300" height="260" fill="white"/><line x1="60" y1="20" x2="260" y2="20" stroke="#1a1a1a" stroke-width="2.2" stroke-linecap="round"/><text x="160.0" y="10" text-anchor="middle" font-family="Helvetica, Arial, sans-serif" font-size="12" font-weight="normal" fill="#1a1a1a">+Vcc</text><line x1="150" y1="20" x2="150" y2="30" stroke="#1a1a1a" stroke-width="2.2" stroke-linecap="round"/><line x1="150" y1="30.0" x2="150" y2="37.5" stroke="#1a1a1a" stroke-width="2.2" stroke-linecap="round"/><line x1="150" y1="72.5" x2="150" y2="80.0" stroke="#1a1a1a" stroke-width="2.2" stroke-linecap="round"/><path d="M 150,37.5 A 10,4.375 0 0 1 150,46.25" stroke="#1a1a1a" stroke-width="2.2" fill="none"/><path d="M 150,46.25 A 10,4.375 0 0 1 150,55.0" stroke="#1a1a1a" stroke-width="2.2" fill="none"/><path d="M 150,55.0 A 10,4.375 0 0 1 150,63.75" stroke="#1a1a1a" stroke-width="2.2" fill="none"/><path d="M 150,63.75 A 10,4.375 0 0 1 150,72.5" stroke="#1a1a1a" stroke-width="2.2" fill="none"/><line x1="150" y1="80" x2="150" y2="95" stroke="#1a1a1a" stroke-width="2.2" stroke-linecap="round"/><line x1="150" y1="20" x2="220" y2="20" stroke="#1a1a1a" stroke-width="2.2" stroke-linecap="round"/><line x1="220" y1="20" x2="220" y2="30" stroke="#1a1a1a" stroke-width="2.2" stroke-linecap="round"/><line x1="220" y1="80.0" x2="220" y2="62.0" stroke="#1a1a1a" stroke-width="2.2" stroke-linecap="round"/><polygon points="211,62.0 229,62.0 220,48.0" stroke="#1a1a1a" stroke-width="2.2" fill="#1a1a1a" stroke-linejoin="round" stroke-linecap="round"/><line x1="211" y1="48.0" x2="229" y2="48.0" stroke="#1a1a1a" stroke-width="2.2" stroke-linecap="round"/><line x1="220" y1="48.0" x2="220" y2="30.0" stroke="#1a1a1a" stroke-width="2.2" stroke-linecap="round"/><line x1="220" y1="80" x2="220" y2="95" stroke="#1a1a1a" stroke-width="2.2" stroke-linecap="round"/><line x1="150" y1="95" x2="220" y2="95" stroke="#1a1a1a" stroke-width="2.2" stroke-linecap="round"/><line x1="150" y1="95" x2="150" y2="128" stroke="#1a1a1a" stroke-width="2.2" stroke-linecap="round"/><circle cx="150" cy="160" r="20" stroke="#1a1a1a" stroke-width="2.2" fill="white"/><line x1="128" y1="160" x2="138" y2="160" stroke="#1a1a1a" stroke-width="2.2" stroke-linecap="round"/><line x1="146" y1="147" x2="146" y2="173" stroke="#1a1a1a" stroke-width="2.2" stroke-linecap="round"/><line x1="146" y1="152" x2="160" y2="152" stroke="#1a1a1a" stroke-width="2.2" stroke-linecap="round"/><line x1="160" y1="152" x2="160" y2="128" stroke="#1a1a1a" stroke-width="2.2" stroke-linecap="round"/><line x1="146" y1="168" x2="160" y2="168" stroke="#1a1a1a" stroke-width="2.2" stroke-linecap="round"/><line x1="160" y1="168" x2="160" y2="192" stroke="#1a1a1a" stroke-width="2.2" stroke-linecap="round"/><polygon points="138,160 131.8569220667674,163.35597877022943 131.8569220667674,156.64402122977057" stroke="#1a1a1a" stroke-width="2.2" fill="#1a1a1a" stroke-linejoin="round" stroke-linecap="round"/><line x1="160" y1="192" x2="160" y2="217" stroke="#1a1a1a" stroke-width="2.2" stroke-linecap="round"/><line x1="160" y1="217" x2="160" y2="225" stroke="#1a1a1a" stroke-width="2.2" stroke-linecap="round"/><line x1="153.0" y1="225" x2="167.0" y2="225" stroke="#1a1a1a" stroke-width="2.2" stroke-linecap="round"/><line x1="155.5" y1="230" x2="164.5" y2="230" stroke="#1a1a1a" stroke-width="2.2" stroke-linecap="round"/><line x1="158.0" y1="235" x2="162.0" y2="235" stroke="#1a1a1a" stroke-width="2.2" stroke-linecap="round"/><line x1="20" y1="160" x2="45" y2="160" stroke="#1a1a1a" stroke-width="2.2" stroke-linecap="round"/><line x1="48.0" y1="160" x2="57.0" y2="160" stroke="#1a1a1a" stroke-width="2.2" stroke-linecap="round"/><line x1="83.0" y1="160" x2="92.0" y2="160" stroke="#1a1a1a" stroke-width="2.2" stroke-linecap="round"/><polyline points="57.0,160 61.333333333333336,152 65.66666666666667,168 70.0,152 74.33333333333333,168 78.66666666666666,152 83.0,160" stroke="#1a1a1a" stroke-width="2.2" fill="none" stroke-linejoin="round" stroke-linecap="round"/><line x1="95" y1="160" x2="128" y2="160" stroke="#1a1a1a" stroke-width="2.2" stroke-linecap="round"/><text x="10" y="164" text-anchor="end" font-family="Helvetica, Arial, sans-serif" font-size="12" font-weight="normal" fill="#1a1a1a">IN</text><text x="230" y="35" text-anchor="start" font-family="Helvetica, Arial, sans-serif" font-size="11" font-weight="normal" fill="#1a1a1a">D1</text><text x="165" y="55" text-anchor="start" font-family="Helvetica, Arial, sans-serif" font-size="11" font-weight="normal" fill="#1a1a1a">load</text></svg>